<svg width="41" height="40" viewBox="0 0 41 40" fill="none" xmlns="http://www.w3.org/2000/svg">
<rect width="41" height="40" rx="20" fill="#22637E"/>
<path d="M20.4993 26.1591C19.6811 26.1591 18.9538 26.0189 18.3175 25.7386C17.6849 25.4583 17.1849 25.0682 16.8175 24.5682C16.45 24.0682 16.255 23.4905 16.2322 22.8352H18.3686C18.3875 23.1496 18.4917 23.4242 18.6811 23.6591C18.8705 23.8902 19.1224 24.0701 19.4368 24.1989C19.7512 24.3277 20.1035 24.392 20.4936 24.392C20.9103 24.392 21.2796 24.3201 21.6016 24.1761C21.9235 24.0284 22.1754 23.8239 22.3572 23.5625C22.5391 23.3011 22.6281 23 22.6243 22.6591C22.6281 22.3068 22.5372 21.9962 22.3516 21.7273C22.166 21.4583 21.897 21.2481 21.5447 21.0966C21.1963 20.9451 20.7758 20.8693 20.2834 20.8693H19.255V19.2443H20.2834C20.6887 19.2443 21.0429 19.1742 21.3459 19.0341C21.6527 18.8939 21.8932 18.697 22.0675 18.4432C22.2417 18.1856 22.3269 17.8883 22.3232 17.5511C22.3269 17.2216 22.2531 16.9356 22.1016 16.6932C21.9538 16.447 21.7436 16.2557 21.4709 16.1193C21.2019 15.983 20.8857 15.9148 20.522 15.9148C20.166 15.9148 19.8364 15.9792 19.5334 16.108C19.2304 16.2367 18.986 16.4205 18.8004 16.6591C18.6148 16.8939 18.5163 17.1742 18.505 17.5H16.4766C16.4917 16.8485 16.6792 16.2765 17.0391 15.7841C17.4027 15.2879 17.8875 14.9015 18.4936 14.625C19.0997 14.3447 19.7796 14.2045 20.5334 14.2045C21.3099 14.2045 21.9841 14.3504 22.5561 14.642C23.1319 14.9299 23.5769 15.3182 23.8913 15.8068C24.2057 16.2955 24.3629 16.8352 24.3629 17.4261C24.3667 18.0814 24.1735 18.6307 23.7834 19.0739C23.397 19.517 22.8894 19.8068 22.2607 19.9432V20.0341C23.0788 20.1477 23.7057 20.4508 24.1413 20.9432C24.5807 21.4318 24.7985 22.0398 24.7947 22.767C24.7947 23.4186 24.6091 24.0019 24.2379 24.517C23.8705 25.0284 23.3629 25.4299 22.7152 25.7216C22.0713 26.0133 21.3326 26.1591 20.4993 26.1591Z" fill="#FCFCFD"/>
</svg>
